<mxfile host="Electron" modified="2024-01-14T21:15:31.809Z" agent="Mozilla/5.0 (X11; Linux x86_64) AppleWebKit/537.36 (KHTML, like Gecko) draw.io/22.1.18 Chrome/120.0.6099.199 Electron/28.1.2 Safari/537.36" etag="8zxg4DgnNgYukd4sFP7x" version="22.1.18" type="device">
  <diagram id="C5RBs43oDa-KdzZeNtuy" name="Page-1">
    <mxGraphModel dx="1513" dy="2458" grid="1" gridSize="10" guides="1" tooltips="1" connect="1" arrows="1" fold="1" page="1" pageScale="1" pageWidth="1920" pageHeight="1200" math="0" shadow="0">
      <root>
        <mxCell id="WIyWlLk6GJQsqaUBKTNV-0" />
        <mxCell id="WIyWlLk6GJQsqaUBKTNV-1" parent="WIyWlLk6GJQsqaUBKTNV-0" />
        <mxCell id="0bhpNzUYXK8bRlqDlKzB-55" style="edgeStyle=orthogonalEdgeStyle;rounded=0;orthogonalLoop=1;jettySize=auto;html=1;" parent="WIyWlLk6GJQsqaUBKTNV-1" source="0bhpNzUYXK8bRlqDlKzB-26" target="0bhpNzUYXK8bRlqDlKzB-54" edge="1">
          <mxGeometry relative="1" as="geometry" />
        </mxCell>
        <mxCell id="0bhpNzUYXK8bRlqDlKzB-26" value="Main" style="shape=table;startSize=20;container=1;collapsible=0;childLayout=tableLayout;strokeColor=#3A5431;fontSize=16;fillColor=#6d8764;fontColor=#ffffff;" parent="WIyWlLk6GJQsqaUBKTNV-1" vertex="1">
          <mxGeometry x="980" y="362" width="180" height="150" as="geometry" />
        </mxCell>
        <mxCell id="0bhpNzUYXK8bRlqDlKzB-27" value="" style="shape=tableRow;horizontal=0;startSize=0;swimlaneHead=0;swimlaneBody=0;strokeColor=#3A5431;top=0;left=0;bottom=0;right=0;collapsible=0;dropTarget=0;fillColor=#6d8764;points=[[0,0.5],[1,0.5]];portConstraint=eastwest;fontSize=16;fontColor=#ffffff;" parent="0bhpNzUYXK8bRlqDlKzB-26" vertex="1">
          <mxGeometry y="20" width="180" height="43" as="geometry" />
        </mxCell>
        <mxCell id="0bhpNzUYXK8bRlqDlKzB-28" value="" style="shape=partialRectangle;html=1;whiteSpace=wrap;connectable=0;strokeColor=#3A5431;overflow=hidden;fillColor=#6d8764;top=0;left=0;bottom=0;right=0;pointerEvents=1;fontSize=16;fontColor=#ffffff;" parent="0bhpNzUYXK8bRlqDlKzB-27" vertex="1">
          <mxGeometry width="60" height="43" as="geometry">
            <mxRectangle width="60" height="43" as="alternateBounds" />
          </mxGeometry>
        </mxCell>
        <mxCell id="0bhpNzUYXK8bRlqDlKzB-29" value="" style="shape=partialRectangle;html=1;whiteSpace=wrap;connectable=0;strokeColor=#3A5431;overflow=hidden;fillColor=#6d8764;top=0;left=0;bottom=0;right=0;pointerEvents=1;fontSize=16;fontColor=#ffffff;" parent="0bhpNzUYXK8bRlqDlKzB-27" vertex="1">
          <mxGeometry x="60" width="60" height="43" as="geometry">
            <mxRectangle width="60" height="43" as="alternateBounds" />
          </mxGeometry>
        </mxCell>
        <mxCell id="0bhpNzUYXK8bRlqDlKzB-30" value="" style="shape=partialRectangle;html=1;whiteSpace=wrap;connectable=0;strokeColor=#3A5431;overflow=hidden;fillColor=#6d8764;top=0;left=0;bottom=0;right=0;pointerEvents=1;fontSize=16;fontColor=#ffffff;" parent="0bhpNzUYXK8bRlqDlKzB-27" vertex="1">
          <mxGeometry x="120" width="60" height="43" as="geometry">
            <mxRectangle width="60" height="43" as="alternateBounds" />
          </mxGeometry>
        </mxCell>
        <mxCell id="0bhpNzUYXK8bRlqDlKzB-31" value="" style="shape=tableRow;horizontal=0;startSize=0;swimlaneHead=0;swimlaneBody=0;strokeColor=#3A5431;top=0;left=0;bottom=0;right=0;collapsible=0;dropTarget=0;fillColor=#6d8764;points=[[0,0.5],[1,0.5]];portConstraint=eastwest;fontSize=16;fontColor=#ffffff;" parent="0bhpNzUYXK8bRlqDlKzB-26" vertex="1">
          <mxGeometry y="63" width="180" height="44" as="geometry" />
        </mxCell>
        <mxCell id="0bhpNzUYXK8bRlqDlKzB-32" value="" style="shape=partialRectangle;html=1;whiteSpace=wrap;connectable=0;strokeColor=#3A5431;overflow=hidden;fillColor=#6d8764;top=0;left=0;bottom=0;right=0;pointerEvents=1;fontSize=16;fontColor=#ffffff;" parent="0bhpNzUYXK8bRlqDlKzB-31" vertex="1">
          <mxGeometry width="60" height="44" as="geometry">
            <mxRectangle width="60" height="44" as="alternateBounds" />
          </mxGeometry>
        </mxCell>
        <mxCell id="0bhpNzUYXK8bRlqDlKzB-33" value="" style="shape=partialRectangle;html=1;whiteSpace=wrap;connectable=0;strokeColor=#3A5431;overflow=hidden;fillColor=#6d8764;top=0;left=0;bottom=0;right=0;pointerEvents=1;fontSize=16;fontColor=#ffffff;" parent="0bhpNzUYXK8bRlqDlKzB-31" vertex="1">
          <mxGeometry x="60" width="60" height="44" as="geometry">
            <mxRectangle width="60" height="44" as="alternateBounds" />
          </mxGeometry>
        </mxCell>
        <mxCell id="0bhpNzUYXK8bRlqDlKzB-34" value="" style="shape=partialRectangle;html=1;whiteSpace=wrap;connectable=0;strokeColor=#3A5431;overflow=hidden;fillColor=#6d8764;top=0;left=0;bottom=0;right=0;pointerEvents=1;fontSize=16;fontColor=#ffffff;" parent="0bhpNzUYXK8bRlqDlKzB-31" vertex="1">
          <mxGeometry x="120" width="60" height="44" as="geometry">
            <mxRectangle width="60" height="44" as="alternateBounds" />
          </mxGeometry>
        </mxCell>
        <mxCell id="0bhpNzUYXK8bRlqDlKzB-35" value="" style="shape=tableRow;horizontal=0;startSize=0;swimlaneHead=0;swimlaneBody=0;strokeColor=#3A5431;top=0;left=0;bottom=0;right=0;collapsible=0;dropTarget=0;fillColor=#6d8764;points=[[0,0.5],[1,0.5]];portConstraint=eastwest;fontSize=16;fontColor=#ffffff;" parent="0bhpNzUYXK8bRlqDlKzB-26" vertex="1">
          <mxGeometry y="107" width="180" height="43" as="geometry" />
        </mxCell>
        <mxCell id="0bhpNzUYXK8bRlqDlKzB-36" value="" style="shape=partialRectangle;html=1;whiteSpace=wrap;connectable=0;strokeColor=#3A5431;overflow=hidden;fillColor=#6d8764;top=0;left=0;bottom=0;right=0;pointerEvents=1;fontSize=16;fontColor=#ffffff;" parent="0bhpNzUYXK8bRlqDlKzB-35" vertex="1">
          <mxGeometry width="60" height="43" as="geometry">
            <mxRectangle width="60" height="43" as="alternateBounds" />
          </mxGeometry>
        </mxCell>
        <mxCell id="0bhpNzUYXK8bRlqDlKzB-37" value="" style="shape=partialRectangle;html=1;whiteSpace=wrap;connectable=0;strokeColor=#3A5431;overflow=hidden;fillColor=#6d8764;top=0;left=0;bottom=0;right=0;pointerEvents=1;fontSize=16;fontColor=#ffffff;" parent="0bhpNzUYXK8bRlqDlKzB-35" vertex="1">
          <mxGeometry x="60" width="60" height="43" as="geometry">
            <mxRectangle width="60" height="43" as="alternateBounds" />
          </mxGeometry>
        </mxCell>
        <mxCell id="0bhpNzUYXK8bRlqDlKzB-38" value="" style="shape=partialRectangle;html=1;whiteSpace=wrap;connectable=0;strokeColor=#3A5431;overflow=hidden;fillColor=#6d8764;top=0;left=0;bottom=0;right=0;pointerEvents=1;fontSize=16;dashed=1;fontColor=#ffffff;" parent="0bhpNzUYXK8bRlqDlKzB-35" vertex="1">
          <mxGeometry x="120" width="60" height="43" as="geometry">
            <mxRectangle width="60" height="43" as="alternateBounds" />
          </mxGeometry>
        </mxCell>
        <mxCell id="0bhpNzUYXK8bRlqDlKzB-47" style="edgeStyle=orthogonalEdgeStyle;rounded=0;orthogonalLoop=1;jettySize=auto;html=1;entryX=0;entryY=0.5;entryDx=0;entryDy=0;" parent="WIyWlLk6GJQsqaUBKTNV-1" source="0bhpNzUYXK8bRlqDlKzB-39" target="0bhpNzUYXK8bRlqDlKzB-27" edge="1">
          <mxGeometry relative="1" as="geometry" />
        </mxCell>
        <mxCell id="0bhpNzUYXK8bRlqDlKzB-39" value="datastructure.h" style="whiteSpace=wrap;html=1;fillColor=#f0a30a;fontColor=#000000;strokeColor=#BD7000;" parent="WIyWlLk6GJQsqaUBKTNV-1" vertex="1">
          <mxGeometry x="670" y="22" width="120" height="60" as="geometry" />
        </mxCell>
        <mxCell id="0bhpNzUYXK8bRlqDlKzB-48" style="edgeStyle=orthogonalEdgeStyle;rounded=0;orthogonalLoop=1;jettySize=auto;html=1;entryX=0;entryY=0;entryDx=0;entryDy=0;" parent="WIyWlLk6GJQsqaUBKTNV-1" source="0bhpNzUYXK8bRlqDlKzB-40" target="0bhpNzUYXK8bRlqDlKzB-26" edge="1">
          <mxGeometry relative="1" as="geometry">
            <Array as="points">
              <mxPoint x="870" y="132" />
              <mxPoint x="980" y="132" />
            </Array>
          </mxGeometry>
        </mxCell>
        <mxCell id="0bhpNzUYXK8bRlqDlKzB-82" style="edgeStyle=orthogonalEdgeStyle;rounded=0;orthogonalLoop=1;jettySize=auto;html=1;entryX=0.5;entryY=0;entryDx=0;entryDy=0;" parent="WIyWlLk6GJQsqaUBKTNV-1" source="0bhpNzUYXK8bRlqDlKzB-40" target="0bhpNzUYXK8bRlqDlKzB-44" edge="1">
          <mxGeometry relative="1" as="geometry">
            <Array as="points">
              <mxPoint x="870" y="2" />
              <mxPoint x="1290" y="2" />
            </Array>
          </mxGeometry>
        </mxCell>
        <mxCell id="0bhpNzUYXK8bRlqDlKzB-83" value="Date" style="edgeLabel;html=1;align=center;verticalAlign=middle;resizable=0;points=[];" parent="0bhpNzUYXK8bRlqDlKzB-82" vertex="1" connectable="0">
          <mxGeometry x="0.9371" y="1" relative="1" as="geometry">
            <mxPoint x="-3" y="-11" as="offset" />
          </mxGeometry>
        </mxCell>
        <mxCell id="0bhpNzUYXK8bRlqDlKzB-40" value="datetime.c" style="whiteSpace=wrap;html=1;fillColor=#f0a30a;fontColor=#000000;strokeColor=#BD7000;" parent="WIyWlLk6GJQsqaUBKTNV-1" vertex="1">
          <mxGeometry x="810" y="22" width="120" height="60" as="geometry" />
        </mxCell>
        <mxCell id="0bhpNzUYXK8bRlqDlKzB-49" style="edgeStyle=orthogonalEdgeStyle;rounded=0;orthogonalLoop=1;jettySize=auto;html=1;entryX=0.25;entryY=0;entryDx=0;entryDy=0;" parent="WIyWlLk6GJQsqaUBKTNV-1" source="0bhpNzUYXK8bRlqDlKzB-41" target="0bhpNzUYXK8bRlqDlKzB-26" edge="1">
          <mxGeometry relative="1" as="geometry" />
        </mxCell>
        <mxCell id="0bhpNzUYXK8bRlqDlKzB-41" value="tools.c" style="whiteSpace=wrap;html=1;fillColor=#f0a30a;fontColor=#000000;strokeColor=#BD7000;" parent="WIyWlLk6GJQsqaUBKTNV-1" vertex="1">
          <mxGeometry x="950" y="22" width="120" height="60" as="geometry" />
        </mxCell>
        <mxCell id="0bhpNzUYXK8bRlqDlKzB-51" style="edgeStyle=orthogonalEdgeStyle;rounded=0;orthogonalLoop=1;jettySize=auto;html=1;entryX=1;entryY=0;entryDx=0;entryDy=0;" parent="WIyWlLk6GJQsqaUBKTNV-1" source="0bhpNzUYXK8bRlqDlKzB-43" target="0bhpNzUYXK8bRlqDlKzB-26" edge="1">
          <mxGeometry relative="1" as="geometry">
            <Array as="points">
              <mxPoint x="1110" y="362" />
            </Array>
          </mxGeometry>
        </mxCell>
        <mxCell id="qNTJ5zZ0pojnZL4rLHeY-4" style="edgeStyle=orthogonalEdgeStyle;rounded=0;orthogonalLoop=1;jettySize=auto;html=1;entryX=0.5;entryY=1;entryDx=0;entryDy=0;" edge="1" parent="WIyWlLk6GJQsqaUBKTNV-1" source="0bhpNzUYXK8bRlqDlKzB-43" target="qNTJ5zZ0pojnZL4rLHeY-0">
          <mxGeometry relative="1" as="geometry">
            <Array as="points">
              <mxPoint x="1150" y="140" />
              <mxPoint x="1220" y="140" />
              <mxPoint x="1220" y="-370" />
            </Array>
          </mxGeometry>
        </mxCell>
        <mxCell id="qNTJ5zZ0pojnZL4rLHeY-5" value="if End == close File" style="edgeLabel;html=1;align=center;verticalAlign=middle;resizable=0;points=[];" vertex="1" connectable="0" parent="qNTJ5zZ0pojnZL4rLHeY-4">
          <mxGeometry x="0.5623" y="-2" relative="1" as="geometry">
            <mxPoint x="18" as="offset" />
          </mxGeometry>
        </mxCell>
        <mxCell id="0bhpNzUYXK8bRlqDlKzB-43" value="menu.c" style="whiteSpace=wrap;html=1;fillColor=#f0a30a;fontColor=#000000;strokeColor=#BD7000;" parent="WIyWlLk6GJQsqaUBKTNV-1" vertex="1">
          <mxGeometry x="1090" y="22" width="120" height="60" as="geometry" />
        </mxCell>
        <mxCell id="0bhpNzUYXK8bRlqDlKzB-52" style="edgeStyle=orthogonalEdgeStyle;rounded=0;orthogonalLoop=1;jettySize=auto;html=1;entryX=1;entryY=0.5;entryDx=0;entryDy=0;" parent="WIyWlLk6GJQsqaUBKTNV-1" source="0bhpNzUYXK8bRlqDlKzB-44" target="0bhpNzUYXK8bRlqDlKzB-27" edge="1">
          <mxGeometry relative="1" as="geometry">
            <Array as="points">
              <mxPoint x="1240" y="352" />
              <mxPoint x="1160" y="352" />
            </Array>
          </mxGeometry>
        </mxCell>
        <mxCell id="0bhpNzUYXK8bRlqDlKzB-44" value="calendar.c" style="whiteSpace=wrap;html=1;fillColor=#f0a30a;fontColor=#000000;strokeColor=#BD7000;" parent="WIyWlLk6GJQsqaUBKTNV-1" vertex="1">
          <mxGeometry x="1230" y="22" width="120" height="60" as="geometry" />
        </mxCell>
        <mxCell id="0bhpNzUYXK8bRlqDlKzB-53" style="edgeStyle=orthogonalEdgeStyle;rounded=0;orthogonalLoop=1;jettySize=auto;html=1;entryX=1;entryY=0.5;entryDx=0;entryDy=0;" parent="WIyWlLk6GJQsqaUBKTNV-1" source="0bhpNzUYXK8bRlqDlKzB-45" target="0bhpNzUYXK8bRlqDlKzB-31" edge="1">
          <mxGeometry relative="1" as="geometry">
            <Array as="points">
              <mxPoint x="1390" y="447" />
            </Array>
          </mxGeometry>
        </mxCell>
        <mxCell id="0bhpNzUYXK8bRlqDlKzB-45" value="database.c" style="whiteSpace=wrap;html=1;fillColor=#f0a30a;fontColor=#000000;strokeColor=#BD7000;" parent="WIyWlLk6GJQsqaUBKTNV-1" vertex="1">
          <mxGeometry x="1370" y="22" width="120" height="60" as="geometry" />
        </mxCell>
        <mxCell id="0bhpNzUYXK8bRlqDlKzB-54" value="CLI Output" style="ellipse;whiteSpace=wrap;html=1;fillColor=#e51400;fontColor=#ffffff;strokeColor=#B20000;" parent="WIyWlLk6GJQsqaUBKTNV-1" vertex="1">
          <mxGeometry x="1030" y="622" width="80" height="80" as="geometry" />
        </mxCell>
        <mxCell id="0bhpNzUYXK8bRlqDlKzB-63" style="edgeStyle=orthogonalEdgeStyle;rounded=0;orthogonalLoop=1;jettySize=auto;html=1;entryX=0.5;entryY=0;entryDx=0;entryDy=0;fillColor=#6a00ff;strokeColor=#3700CC;" parent="WIyWlLk6GJQsqaUBKTNV-1" source="0bhpNzUYXK8bRlqDlKzB-58" target="0bhpNzUYXK8bRlqDlKzB-59" edge="1">
          <mxGeometry relative="1" as="geometry" />
        </mxCell>
        <mxCell id="0bhpNzUYXK8bRlqDlKzB-58" value="MAXAPPOINTMENTS 100 -&amp;gt; define" style="rounded=1;whiteSpace=wrap;html=1;fillColor=#6a00ff;fontColor=#ffffff;strokeColor=#3700CC;" parent="WIyWlLk6GJQsqaUBKTNV-1" vertex="1">
          <mxGeometry x="290" y="-448" width="120" height="60" as="geometry" />
        </mxCell>
        <mxCell id="0bhpNzUYXK8bRlqDlKzB-64" style="edgeStyle=orthogonalEdgeStyle;rounded=0;orthogonalLoop=1;jettySize=auto;html=1;entryX=0.5;entryY=0;entryDx=0;entryDy=0;fillColor=#6a00ff;strokeColor=#3700CC;" parent="WIyWlLk6GJQsqaUBKTNV-1" source="0bhpNzUYXK8bRlqDlKzB-59" target="0bhpNzUYXK8bRlqDlKzB-60" edge="1">
          <mxGeometry relative="1" as="geometry" />
        </mxCell>
        <mxCell id="0bhpNzUYXK8bRlqDlKzB-69" style="edgeStyle=orthogonalEdgeStyle;rounded=0;orthogonalLoop=1;jettySize=auto;html=1;entryX=0;entryY=0.5;entryDx=0;entryDy=0;" parent="WIyWlLk6GJQsqaUBKTNV-1" source="0bhpNzUYXK8bRlqDlKzB-59" target="0bhpNzUYXK8bRlqDlKzB-68" edge="1">
          <mxGeometry relative="1" as="geometry">
            <Array as="points">
              <mxPoint x="740" y="-358" />
              <mxPoint x="740" y="-438" />
              <mxPoint x="780" y="-438" />
            </Array>
          </mxGeometry>
        </mxCell>
        <mxCell id="0bhpNzUYXK8bRlqDlKzB-85" value="char Date" style="edgeLabel;html=1;align=center;verticalAlign=middle;resizable=0;points=[];" parent="0bhpNzUYXK8bRlqDlKzB-69" vertex="1" connectable="0">
          <mxGeometry x="0.8749" y="-1" relative="1" as="geometry">
            <mxPoint as="offset" />
          </mxGeometry>
        </mxCell>
        <mxCell id="0bhpNzUYXK8bRlqDlKzB-71" style="edgeStyle=orthogonalEdgeStyle;rounded=0;orthogonalLoop=1;jettySize=auto;html=1;entryX=0;entryY=0.5;entryDx=0;entryDy=0;" parent="WIyWlLk6GJQsqaUBKTNV-1" source="0bhpNzUYXK8bRlqDlKzB-59" target="0bhpNzUYXK8bRlqDlKzB-70" edge="1">
          <mxGeometry relative="1" as="geometry">
            <Array as="points">
              <mxPoint x="750" y="-338" />
              <mxPoint x="750" y="-368" />
            </Array>
          </mxGeometry>
        </mxCell>
        <mxCell id="0bhpNzUYXK8bRlqDlKzB-59" value="struct = Day, Month, Year -&amp;gt; int sDate" style="rounded=1;whiteSpace=wrap;html=1;fillColor=#6a00ff;fontColor=#ffffff;strokeColor=#3700CC;" parent="WIyWlLk6GJQsqaUBKTNV-1" vertex="1">
          <mxGeometry x="290" y="-368" width="120" height="60" as="geometry" />
        </mxCell>
        <mxCell id="0bhpNzUYXK8bRlqDlKzB-73" style="edgeStyle=orthogonalEdgeStyle;rounded=0;orthogonalLoop=1;jettySize=auto;html=1;entryX=0;entryY=0.5;entryDx=0;entryDy=0;" parent="WIyWlLk6GJQsqaUBKTNV-1" source="0bhpNzUYXK8bRlqDlKzB-60" target="0bhpNzUYXK8bRlqDlKzB-72" edge="1">
          <mxGeometry relative="1" as="geometry">
            <Array as="points">
              <mxPoint x="760" y="-278" />
              <mxPoint x="760" y="-308" />
            </Array>
          </mxGeometry>
        </mxCell>
        <mxCell id="0bhpNzUYXK8bRlqDlKzB-60" value="struct = Hour, Min, Sec -&amp;gt; int sTime" style="rounded=1;whiteSpace=wrap;html=1;fillColor=#6a00ff;fontColor=#ffffff;strokeColor=#3700CC;" parent="WIyWlLk6GJQsqaUBKTNV-1" vertex="1">
          <mxGeometry x="290" y="-288" width="120" height="60" as="geometry" />
        </mxCell>
        <mxCell id="0bhpNzUYXK8bRlqDlKzB-67" style="edgeStyle=orthogonalEdgeStyle;rounded=0;orthogonalLoop=1;jettySize=auto;html=1;entryX=0.5;entryY=0;entryDx=0;entryDy=0;" parent="WIyWlLk6GJQsqaUBKTNV-1" source="0bhpNzUYXK8bRlqDlKzB-61" target="0bhpNzUYXK8bRlqDlKzB-39" edge="1">
          <mxGeometry relative="1" as="geometry">
            <Array as="points">
              <mxPoint x="450" y="12" />
              <mxPoint x="730" y="12" />
            </Array>
          </mxGeometry>
        </mxCell>
        <mxCell id="0bhpNzUYXK8bRlqDlKzB-61" value="struct = Date, Time, *Descr, Durat, *Place -&amp;gt; sAppointment" style="rounded=1;whiteSpace=wrap;html=1;fillColor=#6a00ff;fontColor=#ffffff;strokeColor=#3700CC;" parent="WIyWlLk6GJQsqaUBKTNV-1" vertex="1">
          <mxGeometry x="290" y="-208" width="170" height="90" as="geometry" />
        </mxCell>
        <mxCell id="0bhpNzUYXK8bRlqDlKzB-66" style="edgeStyle=orthogonalEdgeStyle;rounded=0;orthogonalLoop=1;jettySize=auto;html=1;entryX=0.353;entryY=-0.026;entryDx=0;entryDy=0;entryPerimeter=0;fillColor=#6a00ff;strokeColor=#3700CC;" parent="WIyWlLk6GJQsqaUBKTNV-1" source="0bhpNzUYXK8bRlqDlKzB-60" target="0bhpNzUYXK8bRlqDlKzB-61" edge="1">
          <mxGeometry relative="1" as="geometry" />
        </mxCell>
        <mxCell id="0bhpNzUYXK8bRlqDlKzB-68" value="isLeapYear -&amp;gt; int Year" style="rounded=1;whiteSpace=wrap;html=1;fillColor=#fa6800;fontColor=#000000;strokeColor=#C73500;" parent="WIyWlLk6GJQsqaUBKTNV-1" vertex="1">
          <mxGeometry x="780" y="-448" width="100" height="40" as="geometry" />
        </mxCell>
        <mxCell id="0bhpNzUYXK8bRlqDlKzB-75" style="edgeStyle=orthogonalEdgeStyle;rounded=0;orthogonalLoop=1;jettySize=auto;html=1;entryX=1.011;entryY=0.14;entryDx=0;entryDy=0;entryPerimeter=0;" parent="WIyWlLk6GJQsqaUBKTNV-1" source="0bhpNzUYXK8bRlqDlKzB-70" target="0bhpNzUYXK8bRlqDlKzB-74" edge="1">
          <mxGeometry relative="1" as="geometry">
            <mxPoint x="910" y="-208" as="targetPoint" />
            <Array as="points">
              <mxPoint x="890" y="-368" />
              <mxPoint x="890" y="-358" />
              <mxPoint x="902" y="-358" />
            </Array>
          </mxGeometry>
        </mxCell>
        <mxCell id="0bhpNzUYXK8bRlqDlKzB-86" value="char Date" style="edgeLabel;html=1;align=center;verticalAlign=middle;resizable=0;points=[];" parent="0bhpNzUYXK8bRlqDlKzB-75" vertex="1" connectable="0">
          <mxGeometry x="0.4998" y="1" relative="1" as="geometry">
            <mxPoint as="offset" />
          </mxGeometry>
        </mxCell>
        <mxCell id="0bhpNzUYXK8bRlqDlKzB-70" value="isDateValid -&amp;gt; struct *Date" style="rounded=1;whiteSpace=wrap;html=1;fillColor=#fa6800;fontColor=#000000;strokeColor=#C73500;" parent="WIyWlLk6GJQsqaUBKTNV-1" vertex="1">
          <mxGeometry x="780" y="-388" width="100" height="40" as="geometry" />
        </mxCell>
        <mxCell id="0bhpNzUYXK8bRlqDlKzB-72" value="isTimeValid -&amp;gt; struct *Time" style="rounded=1;whiteSpace=wrap;html=1;fillColor=#fa6800;fontColor=#000000;strokeColor=#C73500;" parent="WIyWlLk6GJQsqaUBKTNV-1" vertex="1">
          <mxGeometry x="780" y="-328" width="100" height="40" as="geometry" />
        </mxCell>
        <mxCell id="0bhpNzUYXK8bRlqDlKzB-80" style="edgeStyle=orthogonalEdgeStyle;rounded=0;orthogonalLoop=1;jettySize=auto;html=1;entryX=1;entryY=0.25;entryDx=0;entryDy=0;" parent="WIyWlLk6GJQsqaUBKTNV-1" source="0bhpNzUYXK8bRlqDlKzB-74" target="0bhpNzUYXK8bRlqDlKzB-78" edge="1">
          <mxGeometry relative="1" as="geometry">
            <Array as="points">
              <mxPoint x="910" y="-248" />
              <mxPoint x="910" y="-178" />
              <mxPoint x="920" y="-178" />
              <mxPoint x="920" y="-110" />
              <mxPoint x="895" y="-110" />
            </Array>
          </mxGeometry>
        </mxCell>
        <mxCell id="0bhpNzUYXK8bRlqDlKzB-88" value="int Date" style="edgeLabel;html=1;align=center;verticalAlign=middle;resizable=0;points=[];" parent="0bhpNzUYXK8bRlqDlKzB-80" vertex="1" connectable="0">
          <mxGeometry x="-0.5672" relative="1" as="geometry">
            <mxPoint as="offset" />
          </mxGeometry>
        </mxCell>
        <mxCell id="0bhpNzUYXK8bRlqDlKzB-90" value="Data übergab" style="edgeLabel;html=1;align=center;verticalAlign=middle;resizable=0;points=[];" parent="0bhpNzUYXK8bRlqDlKzB-80" vertex="1" connectable="0">
          <mxGeometry x="0.4307" y="1" relative="1" as="geometry">
            <mxPoint as="offset" />
          </mxGeometry>
        </mxCell>
        <mxCell id="0bhpNzUYXK8bRlqDlKzB-74" value="getDateFrString -&amp;gt; ch *Input, int *Date" style="rounded=1;whiteSpace=wrap;html=1;fillColor=#fa6800;fontColor=#000000;strokeColor=#C73500;" parent="WIyWlLk6GJQsqaUBKTNV-1" vertex="1">
          <mxGeometry x="770" y="-278" width="120" height="60" as="geometry" />
        </mxCell>
        <mxCell id="0bhpNzUYXK8bRlqDlKzB-76" value="getTimeFromString-&amp;gt; ch *Input, int *Time" style="rounded=1;whiteSpace=wrap;html=1;fillColor=#fa6800;fontColor=#000000;strokeColor=#C73500;" parent="WIyWlLk6GJQsqaUBKTNV-1" vertex="1">
          <mxGeometry x="775" y="-208" width="120" height="62" as="geometry" />
        </mxCell>
        <mxCell id="0bhpNzUYXK8bRlqDlKzB-77" style="edgeStyle=orthogonalEdgeStyle;rounded=0;orthogonalLoop=1;jettySize=auto;html=1;entryX=1.026;entryY=0.154;entryDx=0;entryDy=0;entryPerimeter=0;" parent="WIyWlLk6GJQsqaUBKTNV-1" source="0bhpNzUYXK8bRlqDlKzB-72" target="0bhpNzUYXK8bRlqDlKzB-76" edge="1">
          <mxGeometry relative="1" as="geometry">
            <Array as="points">
              <mxPoint x="920" y="-308" />
              <mxPoint x="920" y="-188" />
              <mxPoint x="903" y="-188" />
            </Array>
          </mxGeometry>
        </mxCell>
        <mxCell id="0bhpNzUYXK8bRlqDlKzB-87" value="char Time" style="edgeLabel;html=1;align=center;verticalAlign=middle;resizable=0;points=[];" parent="0bhpNzUYXK8bRlqDlKzB-77" vertex="1" connectable="0">
          <mxGeometry x="-0.0714" y="1" relative="1" as="geometry">
            <mxPoint as="offset" />
          </mxGeometry>
        </mxCell>
        <mxCell id="0bhpNzUYXK8bRlqDlKzB-89" value="int Time" style="edgeLabel;html=1;align=center;verticalAlign=middle;resizable=0;points=[];" parent="0bhpNzUYXK8bRlqDlKzB-77" vertex="1" connectable="0">
          <mxGeometry x="0.6" y="1" relative="1" as="geometry">
            <mxPoint as="offset" />
          </mxGeometry>
        </mxCell>
        <mxCell id="0bhpNzUYXK8bRlqDlKzB-78" value="getDate -&amp;gt; char prompt[calendar], int *Date" style="rounded=1;whiteSpace=wrap;html=1;fillColor=#fa6800;fontColor=#000000;strokeColor=#C73500;" parent="WIyWlLk6GJQsqaUBKTNV-1" vertex="1">
          <mxGeometry x="775" y="-128" width="120" height="50" as="geometry" />
        </mxCell>
        <mxCell id="0bhpNzUYXK8bRlqDlKzB-79" value="&amp;lt;- Gibt die Daten von getDfString in Array durch für CalendarcreateAppoint" style="text;html=1;align=center;verticalAlign=middle;resizable=0;points=[];autosize=1;strokeColor=none;fillColor=none;" parent="WIyWlLk6GJQsqaUBKTNV-1" vertex="1">
          <mxGeometry x="890" y="-98" width="420" height="30" as="geometry" />
        </mxCell>
        <mxCell id="0bhpNzUYXK8bRlqDlKzB-81" style="edgeStyle=orthogonalEdgeStyle;rounded=0;orthogonalLoop=1;jettySize=auto;html=1;entryX=0.558;entryY=-0.067;entryDx=0;entryDy=0;entryPerimeter=0;" parent="WIyWlLk6GJQsqaUBKTNV-1" source="0bhpNzUYXK8bRlqDlKzB-78" target="0bhpNzUYXK8bRlqDlKzB-40" edge="1">
          <mxGeometry relative="1" as="geometry">
            <Array as="points">
              <mxPoint x="900" y="-103" />
              <mxPoint x="900" y="-8" />
              <mxPoint x="877" y="-8" />
            </Array>
          </mxGeometry>
        </mxCell>
        <mxCell id="0bhpNzUYXK8bRlqDlKzB-84" value="Date" style="edgeLabel;html=1;align=center;verticalAlign=middle;resizable=0;points=[];" parent="0bhpNzUYXK8bRlqDlKzB-81" vertex="1" connectable="0">
          <mxGeometry x="0.4537" y="-1" relative="1" as="geometry">
            <mxPoint as="offset" />
          </mxGeometry>
        </mxCell>
        <mxCell id="0bhpNzUYXK8bRlqDlKzB-91" value="getTime -&amp;gt; char prom[cal], int Time, int Opt" style="rounded=1;whiteSpace=wrap;html=1;fillColor=#fa6800;fontColor=#000000;strokeColor=#C73500;" parent="WIyWlLk6GJQsqaUBKTNV-1" vertex="1">
          <mxGeometry x="780" y="-68" width="110" height="50" as="geometry" />
        </mxCell>
        <mxCell id="0bhpNzUYXK8bRlqDlKzB-92" style="edgeStyle=orthogonalEdgeStyle;rounded=0;orthogonalLoop=1;jettySize=auto;html=1;entryX=1;entryY=0.65;entryDx=0;entryDy=0;entryPerimeter=0;" parent="WIyWlLk6GJQsqaUBKTNV-1" source="0bhpNzUYXK8bRlqDlKzB-76" target="0bhpNzUYXK8bRlqDlKzB-91" edge="1">
          <mxGeometry relative="1" as="geometry">
            <Array as="points">
              <mxPoint x="950" y="-173" />
              <mxPoint x="950" y="-35" />
            </Array>
          </mxGeometry>
        </mxCell>
        <mxCell id="0bhpNzUYXK8bRlqDlKzB-96" value="datetime.h" style="text;html=1;align=center;verticalAlign=middle;resizable=0;points=[];autosize=1;strokeColor=none;fillColor=none;" parent="WIyWlLk6GJQsqaUBKTNV-1" vertex="1">
          <mxGeometry x="790" y="-478" width="80" height="30" as="geometry" />
        </mxCell>
        <mxCell id="0bhpNzUYXK8bRlqDlKzB-97" value="datastructure.h" style="text;html=1;align=center;verticalAlign=middle;resizable=0;points=[];autosize=1;strokeColor=#3700CC;fillColor=#6a00ff;fontColor=#ffffff;" parent="WIyWlLk6GJQsqaUBKTNV-1" vertex="1">
          <mxGeometry x="300" y="-480" width="100" height="30" as="geometry" />
        </mxCell>
        <mxCell id="0bhpNzUYXK8bRlqDlKzB-98" style="edgeStyle=orthogonalEdgeStyle;rounded=0;orthogonalLoop=1;jettySize=auto;html=1;entryX=0.417;entryY=0.167;entryDx=0;entryDy=0;entryPerimeter=0;" parent="WIyWlLk6GJQsqaUBKTNV-1" source="0bhpNzUYXK8bRlqDlKzB-91" target="0bhpNzUYXK8bRlqDlKzB-40" edge="1">
          <mxGeometry relative="1" as="geometry" />
        </mxCell>
        <mxCell id="0bhpNzUYXK8bRlqDlKzB-99" value="time" style="edgeLabel;html=1;align=center;verticalAlign=middle;resizable=0;points=[];" parent="0bhpNzUYXK8bRlqDlKzB-98" vertex="1" connectable="0">
          <mxGeometry x="-0.1954" relative="1" as="geometry">
            <mxPoint as="offset" />
          </mxGeometry>
        </mxCell>
        <mxCell id="0bhpNzUYXK8bRlqDlKzB-100" style="edgeStyle=orthogonalEdgeStyle;rounded=0;orthogonalLoop=1;jettySize=auto;html=1;entryX=0.697;entryY=0.025;entryDx=0;entryDy=0;entryPerimeter=0;" parent="WIyWlLk6GJQsqaUBKTNV-1" source="0bhpNzUYXK8bRlqDlKzB-91" target="0bhpNzUYXK8bRlqDlKzB-44" edge="1">
          <mxGeometry relative="1" as="geometry">
            <Array as="points">
              <mxPoint x="1314" y="-28" />
            </Array>
          </mxGeometry>
        </mxCell>
        <mxCell id="0bhpNzUYXK8bRlqDlKzB-101" value="Time" style="edgeLabel;html=1;align=center;verticalAlign=middle;resizable=0;points=[];" parent="0bhpNzUYXK8bRlqDlKzB-100" vertex="1" connectable="0">
          <mxGeometry x="0.8541" relative="1" as="geometry">
            <mxPoint as="offset" />
          </mxGeometry>
        </mxCell>
        <mxCell id="qNTJ5zZ0pojnZL4rLHeY-6" style="edgeStyle=orthogonalEdgeStyle;rounded=0;orthogonalLoop=1;jettySize=auto;html=1;entryX=0.5;entryY=1;entryDx=0;entryDy=0;fillColor=#d80073;strokeColor=#A50040;" edge="1" parent="WIyWlLk6GJQsqaUBKTNV-1" source="qNTJ5zZ0pojnZL4rLHeY-0" target="qNTJ5zZ0pojnZL4rLHeY-3">
          <mxGeometry relative="1" as="geometry" />
        </mxCell>
        <mxCell id="qNTJ5zZ0pojnZL4rLHeY-10" value="write" style="edgeLabel;html=1;align=center;verticalAlign=middle;resizable=0;points=[];" vertex="1" connectable="0" parent="qNTJ5zZ0pojnZL4rLHeY-6">
          <mxGeometry x="-0.1467" relative="1" as="geometry">
            <mxPoint as="offset" />
          </mxGeometry>
        </mxCell>
        <mxCell id="qNTJ5zZ0pojnZL4rLHeY-0" value="saveCalendar" style="rounded=1;whiteSpace=wrap;html=1;fillColor=#d80073;fontColor=#ffffff;strokeColor=#A50040;" vertex="1" parent="WIyWlLk6GJQsqaUBKTNV-1">
          <mxGeometry x="1160" y="-440" width="120" height="60" as="geometry" />
        </mxCell>
        <mxCell id="qNTJ5zZ0pojnZL4rLHeY-13" style="edgeStyle=orthogonalEdgeStyle;rounded=0;orthogonalLoop=1;jettySize=auto;html=1;entryX=0.75;entryY=0;entryDx=0;entryDy=0;" edge="1" parent="WIyWlLk6GJQsqaUBKTNV-1" source="qNTJ5zZ0pojnZL4rLHeY-1" target="0bhpNzUYXK8bRlqDlKzB-44">
          <mxGeometry relative="1" as="geometry">
            <Array as="points">
              <mxPoint x="1640" y="-220" />
              <mxPoint x="1340" y="-220" />
              <mxPoint x="1340" y="22" />
            </Array>
          </mxGeometry>
        </mxCell>
        <mxCell id="qNTJ5zZ0pojnZL4rLHeY-16" value="parse" style="edgeLabel;html=1;align=center;verticalAlign=middle;resizable=0;points=[];" vertex="1" connectable="0" parent="qNTJ5zZ0pojnZL4rLHeY-13">
          <mxGeometry x="0.4841" y="2" relative="1" as="geometry">
            <mxPoint as="offset" />
          </mxGeometry>
        </mxCell>
        <mxCell id="qNTJ5zZ0pojnZL4rLHeY-1" value="loadAppointment" style="rounded=1;whiteSpace=wrap;html=1;fillColor=#d80073;fontColor=#ffffff;strokeColor=#A50040;" vertex="1" parent="WIyWlLk6GJQsqaUBKTNV-1">
          <mxGeometry x="1580" y="-640" width="120" height="60" as="geometry" />
        </mxCell>
        <mxCell id="qNTJ5zZ0pojnZL4rLHeY-9" style="edgeStyle=orthogonalEdgeStyle;rounded=0;orthogonalLoop=1;jettySize=auto;html=1;entryX=0;entryY=0.5;entryDx=0;entryDy=0;fillColor=#d80073;strokeColor=#A50040;" edge="1" parent="WIyWlLk6GJQsqaUBKTNV-1" source="qNTJ5zZ0pojnZL4rLHeY-2" target="qNTJ5zZ0pojnZL4rLHeY-1">
          <mxGeometry relative="1" as="geometry" />
        </mxCell>
        <mxCell id="qNTJ5zZ0pojnZL4rLHeY-12" value="write" style="edgeLabel;html=1;align=center;verticalAlign=middle;resizable=0;points=[];" vertex="1" connectable="0" parent="qNTJ5zZ0pojnZL4rLHeY-9">
          <mxGeometry x="-0.1273" y="-1" relative="1" as="geometry">
            <mxPoint as="offset" />
          </mxGeometry>
        </mxCell>
        <mxCell id="qNTJ5zZ0pojnZL4rLHeY-2" value="loadCalendar" style="rounded=1;whiteSpace=wrap;html=1;fillColor=#d80073;fontColor=#ffffff;strokeColor=#A50040;" vertex="1" parent="WIyWlLk6GJQsqaUBKTNV-1">
          <mxGeometry x="1350" y="-640" width="120" height="60" as="geometry" />
        </mxCell>
        <mxCell id="qNTJ5zZ0pojnZL4rLHeY-8" style="edgeStyle=orthogonalEdgeStyle;rounded=0;orthogonalLoop=1;jettySize=auto;html=1;entryX=0;entryY=0.5;entryDx=0;entryDy=0;fillColor=#d80073;strokeColor=#A50040;" edge="1" parent="WIyWlLk6GJQsqaUBKTNV-1" source="qNTJ5zZ0pojnZL4rLHeY-3" target="qNTJ5zZ0pojnZL4rLHeY-2">
          <mxGeometry relative="1" as="geometry" />
        </mxCell>
        <mxCell id="qNTJ5zZ0pojnZL4rLHeY-11" value="read" style="edgeLabel;html=1;align=center;verticalAlign=middle;resizable=0;points=[];" vertex="1" connectable="0" parent="qNTJ5zZ0pojnZL4rLHeY-8">
          <mxGeometry x="-0.2444" y="-3" relative="1" as="geometry">
            <mxPoint as="offset" />
          </mxGeometry>
        </mxCell>
        <mxCell id="qNTJ5zZ0pojnZL4rLHeY-3" value="XML-File" style="ellipse;whiteSpace=wrap;html=1;fillColor=#d80073;fontColor=#ffffff;strokeColor=#A50040;" vertex="1" parent="WIyWlLk6GJQsqaUBKTNV-1">
          <mxGeometry x="1180" y="-650" width="80" height="80" as="geometry" />
        </mxCell>
        <mxCell id="qNTJ5zZ0pojnZL4rLHeY-14" style="edgeStyle=orthogonalEdgeStyle;rounded=0;orthogonalLoop=1;jettySize=auto;html=1;entryX=1.003;entryY=0.061;entryDx=0;entryDy=0;entryPerimeter=0;" edge="1" parent="WIyWlLk6GJQsqaUBKTNV-1" source="0bhpNzUYXK8bRlqDlKzB-44" target="0bhpNzUYXK8bRlqDlKzB-31">
          <mxGeometry relative="1" as="geometry" />
        </mxCell>
        <mxCell id="qNTJ5zZ0pojnZL4rLHeY-17" style="edgeStyle=orthogonalEdgeStyle;rounded=0;orthogonalLoop=1;jettySize=auto;html=1;exitX=0.25;exitY=1;exitDx=0;exitDy=0;entryX=0.317;entryY=0.983;entryDx=0;entryDy=0;entryPerimeter=0;" edge="1" parent="WIyWlLk6GJQsqaUBKTNV-1" source="0bhpNzUYXK8bRlqDlKzB-44" target="qNTJ5zZ0pojnZL4rLHeY-0">
          <mxGeometry relative="1" as="geometry">
            <Array as="points">
              <mxPoint x="1260" y="102" />
              <mxPoint x="1180" y="102" />
              <mxPoint x="1180" y="-381" />
            </Array>
          </mxGeometry>
        </mxCell>
        <mxCell id="qNTJ5zZ0pojnZL4rLHeY-18" value="Data parsing" style="edgeLabel;html=1;align=center;verticalAlign=middle;resizable=0;points=[];" vertex="1" connectable="0" parent="qNTJ5zZ0pojnZL4rLHeY-17">
          <mxGeometry x="0.3061" y="-3" relative="1" as="geometry">
            <mxPoint x="-23" as="offset" />
          </mxGeometry>
        </mxCell>
      </root>
    </mxGraphModel>
  </diagram>
</mxfile>
